<svg width="60"
     height="60"
     viewBox="0 0 60 60"
     fill="none"
     xmlns="http://www.w3.org/2000/svg">
    <mask id="mask0_1437_5980"
          style="mask-type:alpha"
          maskUnits="userSpaceOnUse"
          x="0"
          y="0"
          width="60"
          height="60">
        <rect width="60" height="60" rx="27" fill="#D9D9D9" />
    </mask>
    <g mask="url(#mask0_1437_5980)"></g>
    <g clip-path="url(#clip0_1437_5980)">
        <mask id="mask1_1437_5980"
              style="mask-type:luminance"
              maskUnits="userSpaceOnUse"
              x="5"
              y="15"
              width="51"
              height="30">
            <path d="M5.26562 15.0392H55.0894V44.9335H5.26562V15.0392Z" fill="white" />
        </mask>
        <g mask="url(#mask1_1437_5980)">
            <path fill-rule="evenodd" clip-rule="evenodd" d="M30.1775 15.0392C23.5343 15.0392 19.3824 18.3608 17.7216 25.004C20.2128 21.6824 23.1191 20.4368 26.4407 21.2672C28.3359 21.7405 29.6903 23.1162 31.1897 24.6377C33.632 27.1169 36.459 29.9864 42.6334 29.9864C49.2766 29.9864 53.4286 26.6648 55.0894 20.0216C52.5982 23.3432 49.6918 24.5888 46.3702 23.7584C44.4751 23.2851 43.1206 21.9094 41.6213 20.3879C39.179 17.9087 36.352 15.0392 30.1775 15.0392ZM17.7216 29.9864C11.0784 29.9864 6.92642 33.308 5.26562 39.9511C7.75681 36.6295 10.6632 35.3839 13.9848 36.2143C15.8799 36.6886 17.2344 38.0634 18.7337 39.5848C21.176 42.064 24.003 44.9335 30.1775 44.9335C36.8207 44.9335 40.9727 41.6119 42.6334 34.9687C40.1423 38.2903 37.2359 39.5359 33.9143 38.7055C32.0191 38.2322 30.6647 36.8565 29.1653 35.335C26.7231 32.8559 23.896 29.9864 17.7216 29.9864Z" fill="#38BDF8" />
        </g>
    </g>
    <defs>
        <clipPath id="clip0_1437_5980">
            <rect width="49.8238" height="30.4478" fill="white" transform="translate(5.26172 15.0392)" />
        </clipPath>
    </defs>
</svg>