<svg width="160"
     height="160"
     viewBox="0 0 160 160"
     fill="none"
     xmlns="http://www.w3.org/2000/svg">
  <path d="M0 19.8387V139.855C0 150.811 8.88267 159.693 19.8387 159.693H139.853C150.811 159.693 159.692 150.811 159.692 139.855V19.8387C159.692 8.88269 150.811 2.57583e-05 139.853 2.57583e-05H19.8387C8.88267 2.57583e-05 0 8.88269 0 19.8387Z" fill="#EFEFEF" />
  <path d="M64.0345 25.6082V56.3869C64.0345 60.6109 67.4585 64.0349 71.6812 64.0349H95.6572V88.0109C95.6572 92.2349 99.0812 95.6575 103.305 95.6575H134.084C138.308 95.6575 141.731 92.2349 141.731 88.0109V25.6082C141.731 21.3842 138.308 17.9602 134.084 17.9602H71.6812C67.4585 17.9602 64.0345 21.3842 64.0345 25.6082Z" fill="#56D844" />
  <path d="M134.084 17.9604H95.6586V64.0351H141.732V25.6084C141.732 21.3844 138.308 17.9604 134.084 17.9604Z" fill="#69EF5E" />
  <path d="M71.6816 17.9604C67.4589 17.9604 64.0349 21.3844 64.0349 25.6084V56.3871C64.0349 60.6111 67.4589 64.0351 71.6816 64.0351H95.6563V17.9604H71.6816Z" fill="#7EFC70" />
  <path d="M95.6581 134.085V103.306C95.6581 99.082 92.2341 95.658 88.0101 95.658H64.0341V71.682C64.0341 67.458 60.6101 64.034 56.3861 64.034H25.6075C21.3835 64.034 17.9608 67.458 17.9608 71.682V134.085C17.9608 138.309 21.3835 141.731 25.6075 141.731H88.0101C92.2341 141.731 95.6581 138.309 95.6581 134.085Z" fill="#2B2B2B" />
  <path d="M25.6073 141.732H64.034V95.6573H17.9607V134.085C17.9607 138.309 21.3847 141.732 25.6073 141.732Z" fill="#191919" />
  <path d="M88.0097 141.732C92.2337 141.732 95.6564 138.309 95.6564 134.085V103.307C95.6564 99.0826 92.2337 95.6573 88.0097 95.6573H64.0351V141.732H88.0097Z" fill="#3D3D3D" />
</svg>