<svg xmlns="http://www.w3.org/2000/svg" version="1.2" viewBox="0 0 1000 1000" width="1000" height="1000">
	<title>New Project</title>
	<defs>
		<clipPath clipPathUnits="userSpaceOnUse" id="cp1">
			<path d="m0 0h1000v1000h-1000z"/>
		</clipPath>
	</defs>
	<style>
		.s0 { fill: currentColor } 
	</style>
	<g id="Artboard 1" clip-path="url(#cp1)">
		<path id="&lt;Compound Path&gt;" fill-rule="evenodd" class="s0" d="m479.2 284.7q-37.9 0.1-73.8 6.7-36 6.6-71.5 17-35.4 10.4-71.9 25.1-36.4 14.7-75.2 29.8-2.8 1.9-9.9 4.2-7.1 2.4-14.2 3.8-7.1 1.4-12.8-0.9-5.7-2.4-5.7-10.9 0-8.5 5.2-17 5.2-8.5 10-13.3 27.4-35.9 65.7-60.5 38.4-24.6 81.9-39.3 43.5-14.7 89.4-21.3 45.9-6.6 88.5-6.6 74.7 0 148.5 20.3 73.8 20.4 132.9 59.2 59.2 38.8 96.1 95.1 36.9 56.3 36.9 127.2 0 51.1-18.9 92.7-19 41.7-50.7 74.8-31.7 33.1-73.8 56.8-42.1 23.6-88.4 39.7-46.4 16.1-94.6 23.6-48.3 7.6-91.8 7.6-87.1 0-171.3-20.3c-56.1-13.6-108.8-33.9-158-61.1h1q-7.6-3.7-16.6-9.4-9-5.7-17-11.8-8.1-6.2-13.3-11.9-5.2-5.6-5.2-10.4 0-4.7 5.7-4.7 5.7 0 13.2 1.9 7.6 1.9 15.2 5.2 7.5 3.3 11.3 4.2 73.8 23.7 147.2 36.9 73.3 13.3 153.7 14.2 30.3 0 70.5-4.7 40.2-4.7 81.8-15.6 41.7-10.9 81.9-28.4 40.2-17.5 71.9-43.5 31.7-26 51.1-60.6 19.4-34.5 19.4-79 0-41.6-18.5-74.2-18.4-32.7-48.2-56.3-29.8-23.7-67.2-39.8-37.4-16.1-75.7-26-38.3-9.9-73.8-14.2-35.5-4.3-61-4.3zm-64.4 272.5q0-20.8 0-51.5 0-30.8 1.5-63.9 1.4-33.1 4.7-64.3 3.3-31.3 9-54 4.7-9.4 17-7.5 12.3 1.9 24.6 10.4 12.3 8.5 21.8 19.4 9.4 10.9 9.4 17.5 0 27.4-3.7 57.7-3.8 30.3-3.8 53.9-1.9 25.6-2.4 52.5-0.5 27-2.8 54-2.4 26.9-8.1 52.5-5.7 25.5-18 47.3-1.9 3.8-5.2 9.5-3.3 5.6-7.5 10.8-4.3 5.2-9 9-4.8 3.8-8.5 3.8-7.6 0-11.9-15.6-4.2-15.6-5.6-39.3-1.5-23.6-1.5-51.1 0-27.4 0-51.1z"/>
	</g>
</svg>
<title xmlns="http://www.w3.org/2000/svg">New Project</title>
<defs xmlns="http://www.w3.org/2000/svg">
		<clipPath clipPathUnits="userSpaceOnUse" id="cp1">
			<path d="m0 0h1000v1000h-1000z"/>
		</clipPath>
	</defs>
<style xmlns="http://www.w3.org/2000/svg">
		.s0 { fill: currentColor } 
	</style>
<g xmlns="http://www.w3.org/2000/svg" id="Artboard 1" clip-path="url(#cp1)">
		<path id="&lt;Compound Path&gt;" fill-rule="evenodd" class="s0" d="m479.2 284.7q-37.9 0.1-73.8 6.7-36 6.6-71.5 17-35.4 10.4-71.9 25.1-36.4 14.7-75.2 29.8-2.8 1.9-9.9 4.2-7.1 2.4-14.2 3.8-7.1 1.4-12.8-0.9-5.7-2.4-5.7-10.9 0-8.5 5.2-17 5.2-8.5 10-13.3 27.4-35.9 65.7-60.5 38.4-24.6 81.9-39.3 43.5-14.7 89.4-21.3 45.9-6.6 88.5-6.6 74.7 0 148.5 20.3 73.8 20.4 132.9 59.2 59.2 38.8 96.1 95.1 36.9 56.3 36.9 127.2 0 51.1-18.9 92.7-19 41.7-50.7 74.8-31.7 33.1-73.8 56.8-42.1 23.6-88.4 39.7-46.4 16.1-94.6 23.6-48.3 7.6-91.8 7.6-87.1 0-171.3-20.3c-56.1-13.6-108.8-33.9-158-61.1h1q-7.6-3.7-16.6-9.4-9-5.7-17-11.8-8.1-6.2-13.3-11.9-5.2-5.6-5.2-10.4 0-4.7 5.7-4.7 5.7 0 13.2 1.9 7.6 1.9 15.2 5.2 7.5 3.3 11.3 4.2 73.8 23.7 147.2 36.9 73.3 13.3 153.7 14.2 30.3 0 70.5-4.7 40.2-4.7 81.8-15.6 41.7-10.9 81.9-28.4 40.2-17.5 71.9-43.5 31.7-26 51.1-60.6 19.4-34.5 19.4-79 0-41.6-18.5-74.2-18.4-32.7-48.2-56.3-29.8-23.7-67.2-39.8-37.4-16.1-75.7-26-38.3-9.9-73.8-14.2-35.5-4.3-61-4.3zm-64.4 272.5q0-20.8 0-51.5 0-30.8 1.5-63.9 1.4-33.1 4.7-64.3 3.3-31.3 9-54 4.7-9.4 17-7.5 12.3 1.9 24.6 10.4 12.3 8.5 21.8 19.4 9.4 10.9 9.4 17.5 0 27.4-3.7 57.7-3.8 30.3-3.8 53.9-1.9 25.6-2.4 52.5-0.5 27-2.8 54-2.4 26.9-8.1 52.5-5.7 25.5-18 47.3-1.9 3.8-5.2 9.5-3.3 5.6-7.5 10.8-4.3 5.2-9 9-4.8 3.8-8.5 3.8-7.6 0-11.9-15.6-4.2-15.6-5.6-39.3-1.5-23.6-1.5-51.1 0-27.4 0-51.1z"/>
	</g>
<svg xmlns="http://www.w3.org/2000/svg" version="1.2" viewBox="0 0 1000 1000" width="1000" height="1000">
	<title>New Project</title>
	<defs>
		<clipPath clipPathUnits="userSpaceOnUse" id="cp1">
			<path d="m0 0h1000v1000h-1000z"/>
		</clipPath>
	</defs>
	<style>
		.s0 { fill: currentColor } 
	</style>
	<g id="Artboard 1" clip-path="url(#cp1)">
		<path id="&lt;Compound Path&gt;" fill-rule="evenodd" class="s0" d="m479.2 284.7q-37.9 0.1-73.8 6.7-36 6.6-71.5 17-35.4 10.4-71.9 25.1-36.4 14.7-75.2 29.8-2.8 1.9-9.9 4.2-7.1 2.4-14.2 3.8-7.1 1.4-12.8-0.9-5.7-2.4-5.7-10.9 0-8.5 5.2-17 5.2-8.5 10-13.3 27.4-35.9 65.7-60.5 38.4-24.6 81.9-39.3 43.5-14.7 89.4-21.3 45.9-6.6 88.5-6.6 74.7 0 148.5 20.3 73.8 20.4 132.9 59.2 59.2 38.8 96.1 95.1 36.9 56.3 36.9 127.2 0 51.1-18.9 92.7-19 41.7-50.7 74.8-31.7 33.1-73.8 56.8-42.1 23.6-88.4 39.7-46.4 16.1-94.6 23.6-48.3 7.6-91.8 7.6-87.1 0-171.3-20.3c-56.1-13.6-108.8-33.9-158-61.1h1q-7.6-3.7-16.6-9.4-9-5.7-17-11.8-8.1-6.2-13.3-11.9-5.2-5.6-5.2-10.4 0-4.7 5.7-4.7 5.7 0 13.2 1.9 7.6 1.9 15.2 5.2 7.5 3.3 11.3 4.2 73.8 23.7 147.2 36.9 73.3 13.3 153.7 14.2 30.3 0 70.5-4.7 40.2-4.7 81.8-15.6 41.7-10.9 81.9-28.4 40.2-17.5 71.9-43.5 31.7-26 51.1-60.6 19.4-34.5 19.4-79 0-41.6-18.5-74.2-18.4-32.7-48.2-56.3-29.8-23.7-67.2-39.8-37.4-16.1-75.7-26-38.3-9.9-73.8-14.2-35.5-4.3-61-4.3zm-64.4 272.5q0-20.8 0-51.5 0-30.8 1.5-63.9 1.4-33.1 4.7-64.3 3.3-31.3 9-54 4.7-9.4 17-7.5 12.3 1.9 24.6 10.4 12.3 8.5 21.8 19.4 9.4 10.9 9.4 17.5 0 27.4-3.7 57.7-3.8 30.3-3.8 53.9-1.9 25.6-2.4 52.5-0.5 27-2.8 54-2.4 26.9-8.1 52.5-5.7 25.5-18 47.3-1.9 3.8-5.2 9.5-3.3 5.6-7.5 10.8-4.3 5.2-9 9-4.8 3.8-8.5 3.8-7.6 0-11.9-15.6-4.2-15.6-5.6-39.3-1.5-23.6-1.5-51.1 0-27.4 0-51.1z"/>
	</g>
</svg>